<svg viewBox="0 0 144 128" xmlns="http://www.w3.org/2000/svg" role="img" aria-label="PwrDrvr">
  <g fill="currentColor">
    <rect x="2" y="40" width="32" height="6" rx="1.5" opacity="0.55"></rect>
    <rect x="10" y="56" width="22" height="6" rx="1.5" opacity="0.35"></rect>
    <rect x="18" y="72" width="12" height="6" rx="1.5" opacity="0.2"></rect>
  </g>
  <g transform="translate(28 0) skewX(-12)">
    <path fill="currentColor" fill-rule="evenodd" d="M 22 14 H 62 a 30 26 0 0 1 0 52 H 46 V 114 H 22 Z M 64 36 m -13 0 a 13 13 0 1 0 26 0 a 13 13 0 1 0 -26 0 Z"></path>
  </g>
  <g transform="translate(84 36)" fill="none" stroke="currentColor" stroke-width="5" stroke-linecap="round">
    <path d="M -9 0 A 10 10 0 1 0 9 0"></path>
    <line x1="0" y1="-11" x2="0" y2="3"></line>
  </g>
</svg>